<svg width="135" height="54" viewBox="0 0 135 54" fill="none" xmlns="http://www.w3.org/2000/svg">
<path d="M56.8012 6.24419C56.7 6.54794 56.9025 7.08794 57.2062 7.42544C58.0162 8.30294 58.0162 11.2729 57.2062 12.8254C55.6875 15.7617 53.6287 17.8542 44.0437 25.9204C39.1837 30.0042 36.2812 33.2442 34.8637 36.0792C34.1212 37.6317 33.9187 38.5429 33.8175 41.0742C33.6825 43.9092 33.7837 44.3479 34.5937 46.1367C35.6062 48.2629 37.4962 50.2879 38.5087 50.2879C38.88 50.2879 39.15 50.4567 39.15 50.6929C39.15 50.8954 39.2512 50.9629 39.3525 50.8617C39.69 50.5242 38.7787 49.5792 38.4075 49.8154C37.8675 50.1529 37.4625 49.1742 37.9012 48.6342C38.2387 48.2629 38.1712 48.1954 37.5975 48.3979C37.0912 48.5667 36.7875 48.4654 36.6525 48.0604C36.3487 47.2842 36.6525 47.0479 37.26 47.5542C37.6987 47.9254 37.7662 47.7567 37.5637 46.3392C37.1587 42.7279 39.3187 39.9942 48.6337 32.2654C55.4512 26.5954 58.8262 23.0517 60.2775 20.0142C61.3237 17.7529 61.425 17.3142 61.425 14.3442C61.425 10.6992 60.75 8.84294 58.6912 6.81794C57.4425 5.60294 57.105 5.50169 56.8012 6.24419ZM58.0162 6.54794C58.2862 6.88544 58.32 7.08794 58.05 7.25669C57.6112 7.52669 57.0375 7.15544 57.0375 6.54794C57.0375 5.94044 57.51 5.94044 58.0162 6.54794ZM58.9612 8.26919C59.2312 9.01169 58.7587 9.38294 58.3875 8.77544C57.9487 8.10044 57.9825 7.76294 58.3875 7.76294C58.59 7.76294 58.8262 7.99919 58.9612 8.26919ZM59.7375 10.1254C59.7375 10.4967 59.6025 10.8004 59.4337 10.8004C59.265 10.8004 59.0625 10.4967 58.9612 10.1254C58.86 9.68669 58.9612 9.45044 59.265 9.45044C59.535 9.45044 59.7375 9.75419 59.7375 10.1254ZM60.075 11.7792C60.075 12.1504 59.94 12.5554 59.7375 12.6567C59.535 12.7917 59.4 12.4879 59.4 12.0154C59.4 11.5429 59.5687 11.1379 59.7375 11.1379C59.94 11.1379 60.075 11.4417 60.075 11.7792ZM60.075 13.6354C60.075 14.1754 59.4675 14.6817 59.1637 14.3779C58.8937 14.1079 59.3325 13.1629 59.7375 13.1629C59.9062 13.1629 60.075 13.3654 60.075 13.6354ZM59.5012 15.0529C59.805 15.3904 59.3662 16.2004 58.86 16.2004C58.32 16.2004 58.32 16.1329 58.59 15.3904C58.7925 14.8167 59.13 14.7154 59.5012 15.0529ZM58.725 17.0104C58.725 17.5167 58.1175 18.0567 57.8475 17.7867C57.6112 17.5504 58.0837 16.5379 58.4212 16.5379C58.59 16.5379 58.725 16.7404 58.725 17.0104ZM57.6787 18.9342C57.4425 19.4067 57.2062 19.5417 56.97 19.3054C56.5312 18.8667 56.9025 18.2254 57.5775 18.2254C57.9825 18.2254 58.0162 18.3604 57.6787 18.9342ZM56.7 19.8454C56.7 20.3517 54.945 22.2754 54.6412 22.0729C54.2362 21.8367 54.675 20.9254 55.1812 20.9254C55.4175 20.9254 55.6875 20.6217 55.7887 20.2504C55.9575 19.6092 56.7 19.2717 56.7 19.8454ZM54.3375 22.5792C54.3375 22.7479 54.1012 23.0517 53.8312 23.2879C53.4262 23.6254 53.325 23.6254 53.325 23.2204C53.325 22.9504 53.4262 22.6129 53.5612 22.5117C53.865 22.1742 54.3375 22.2079 54.3375 22.5792ZM52.9875 23.9292C52.9875 24.3342 52.3125 24.7729 52.0762 24.5367C51.84 24.3004 52.2787 23.6254 52.6837 23.6254C52.8525 23.6254 52.9875 23.7604 52.9875 23.9292ZM51.6375 25.1104C51.6375 25.6504 51.03 26.1567 50.7262 25.8529C50.4562 25.5829 50.895 24.6379 51.3 24.6379C51.4687 24.6379 51.6375 24.8404 51.6375 25.1104ZM50.2875 26.4604C50.2875 26.7304 50.1525 27.0342 49.9837 27.1692C49.5787 27.4054 49.1737 26.7642 49.4437 26.3254C49.7475 25.8192 50.2875 25.9204 50.2875 26.4604ZM48.8362 27.9117C48.5325 28.2154 48.1612 28.3167 47.8912 28.1817C47.5875 27.9792 47.6212 27.8104 48.0937 27.4729C48.87 26.8992 49.5112 27.2704 48.8362 27.9117ZM47.925 28.6879C47.925 29.0929 46.98 29.5317 46.71 29.2617C46.4062 28.9579 46.9125 28.3504 47.4525 28.3504C47.7225 28.3504 47.925 28.5192 47.925 28.6879ZM46.2037 30.2404C45.9675 30.5104 45.5962 30.6792 45.3262 30.5779C45.0562 30.4767 44.9212 30.5104 45.0225 30.6792C45.2587 31.0504 44.28 31.8942 43.9425 31.5904C43.605 31.2529 45.8325 29.2954 46.2712 29.5654C46.4737 29.7004 46.4737 29.9367 46.2037 30.2404ZM43.5037 32.6029C43.3012 32.8729 42.9975 33.0754 42.8287 33.0754C42.3562 33.0754 42.4575 32.1304 42.9637 31.9617C43.6387 31.7254 43.9425 32.0967 43.5037 32.6029ZM42.1875 33.9192C41.8837 34.2904 41.6475 34.3579 41.4112 34.1217C41.175 33.8854 41.2087 33.6154 41.5125 33.2442C41.8162 32.8729 42.0525 32.8054 42.2887 33.0417C42.525 33.2779 42.4912 33.5479 42.1875 33.9192ZM41.04 35.0667C40.77 35.5054 39.825 35.5729 39.825 35.1679C39.825 35.0329 39.9937 34.7292 40.23 34.4929C40.7025 34.0204 41.3775 34.4929 41.04 35.0667ZM39.825 36.0792C39.825 36.4842 39.15 36.9229 38.9137 36.6867C38.6775 36.4504 39.1162 35.7754 39.5212 35.7754C39.69 35.7754 39.825 35.9104 39.825 36.0792ZM38.07 38.5767C37.6312 39.2517 37.0912 39.7917 36.8887 39.8254C36.2137 39.8254 36.3825 39.2517 37.1925 38.6779C37.5975 38.3742 37.8337 38.1379 37.6987 38.1379C37.5637 38.1379 37.5975 37.8342 37.8337 37.4292C38.07 36.9567 38.3062 36.8217 38.5087 37.0242C38.745 37.2604 38.5762 37.8004 38.07 38.5767ZM36.8887 40.8379C36.7875 41.2092 36.4837 41.5129 36.2475 41.5129C35.7075 41.5129 35.7075 41.4454 35.9775 40.7029C36.2812 39.8929 37.0912 40.0279 36.8887 40.8379ZM36.45 41.9854C36.45 42.0529 36.3487 42.3567 36.2475 42.6604C35.9437 43.4367 35.4375 43.3354 35.4375 42.5254C35.4375 42.1542 35.6737 41.8504 35.9437 41.8504C36.2137 41.8504 36.45 41.9179 36.45 41.9854ZM36.1125 44.3817C36.1125 44.8542 35.9775 45.2254 35.775 45.2254C35.6062 45.2254 35.4375 44.8542 35.4375 44.3817C35.4375 43.9092 35.6062 43.5379 35.775 43.5379C35.9775 43.5379 36.1125 43.9092 36.1125 44.3817ZM36.585 46.1029C36.72 46.4067 36.72 46.7442 36.6525 46.8117C36.3825 47.0817 35.775 46.5417 35.775 46.0354C35.775 45.3942 36.315 45.4279 36.585 46.1029Z" fill="#404040"/>
<path d="M46.5748 5.19602C46.3723 5.39852 46.2373 8.53727 46.2373 13.5998V21.666L47.1823 21.0923C47.6886 20.7548 48.7011 19.911 49.4436 19.2023C50.1861 18.4935 51.6036 17.1435 52.5823 16.2323L54.3711 14.5448L54.2698 9.71852L54.1686 4.89227L50.5573 4.85852C48.4986 4.85852 46.7773 4.99352 46.5748 5.19602Z" fill="#96C140"/>
<path d="M73.1363 15.5236C73.035 15.8949 73.1025 16.2999 73.2713 16.4011C73.71 16.6374 73.305 18.1224 72.36 19.7761C71.5163 21.1936 71.3475 22.2399 71.82 22.7799C71.9888 22.9824 72.3263 23.7586 72.5625 24.5686C72.9 25.6824 73.2038 26.0536 73.8788 26.1886C74.3513 26.2899 75.1613 26.5936 75.6675 26.8636C76.7138 27.4374 76.95 27.4374 76.95 26.9986C76.95 26.7961 76.7138 26.6611 76.41 26.6611C76.1063 26.6611 75.9375 26.4586 76.0388 26.2224C76.14 25.8849 75.9375 25.8174 75.2625 25.9186C74.1488 26.0874 73.71 25.2774 74.3175 24.1974C74.79 23.2524 75.2288 22.9486 76.275 22.9486C77.1863 22.9149 78.6375 21.9024 78.6375 21.2949C78.6375 21.0924 78.7725 20.9236 78.9075 20.9236C79.38 20.9236 80.6625 19.7086 80.6625 19.2699C80.6625 19.0674 81 18.8986 81.4388 18.8986L82.1813 18.8649L81.3713 18.1899C80.5613 17.5486 80.5613 17.5486 80.0888 18.2236C79.4475 19.1349 79.245 19.1011 78.4688 17.6836C77.9625 16.7386 77.9288 16.4349 78.2663 16.2324C78.8738 15.8274 78.4013 15.6586 76.68 15.5574C75.87 15.5236 74.8575 15.3549 74.385 15.1861C73.2713 14.7474 73.3388 14.7474 73.1363 15.5236Z" fill="#96C140"/>
<path d="M81.6748 15.2876C81.6748 15.5239 81.8773 16.0301 82.1473 16.4014C82.6198 17.0089 82.6536 17.0089 82.8561 16.4351C83.0923 15.8614 82.5186 14.8489 81.9786 14.8489C81.8098 14.8489 81.6748 15.0514 81.6748 15.2876Z" fill="#96C140"/>
<path d="M88.1211 24.535C88.1211 25.8175 88.2561 27.3362 88.4586 27.91C88.7623 28.8887 88.8973 28.9562 89.4711 28.6525C90.0111 28.3825 90.1123 28.045 89.9773 26.7287C89.8086 25.075 88.9986 22.8137 88.4586 22.4762C88.2898 22.3412 88.1211 23.2525 88.1211 24.535Z" fill="#96C140"/>
<path d="M78.9412 28.9232C78.7725 29.3957 78.7387 29.902 78.84 30.1045C78.975 30.3407 78.9075 30.3745 78.705 30.2395C78.4687 30.1045 78.2325 30.3407 78.0975 30.847C77.895 31.7245 79.1775 33.8507 80.19 34.222C80.5612 34.357 80.6625 35.0657 80.6625 37.192C80.6962 39.6557 80.73 39.892 81.135 39.217C81.3712 38.7782 81.945 38.1707 82.4175 37.867C82.9237 37.5295 83.6325 36.8545 84.0375 36.3482C84.4425 35.842 84.9487 35.437 85.185 35.437C85.4212 35.437 85.8262 35.032 86.0625 34.492C86.3325 33.9857 86.7712 33.3107 87.0075 33.007C87.6825 32.197 87.3112 31.4882 86.13 31.2182C85.5562 31.117 84.9825 30.6782 84.78 30.2057C84.5437 29.7332 84.1725 29.362 83.9362 29.362C83.6662 29.362 83.1937 29.0582 82.8562 28.687C82.3837 28.1807 81.8775 28.012 80.7637 28.0795C79.515 28.1132 79.2112 28.2482 78.9412 28.9232Z" fill="#96C140"/>
<path d="M4.7926 27.7761L4.89385 50.7936L9.01135 50.8948L13.1626 50.9961L13.2301 36.0448L13.3313 21.0936L15.2213 23.6248C16.2338 25.0086 17.6176 26.8986 18.2926 27.8436C23.2201 34.8636 24.4013 36.4836 25.6163 38.0361C26.3926 38.9811 27.0001 39.8923 27.0001 40.0273C27.0001 40.1623 27.5063 40.8711 28.1138 41.6473C30.2063 44.2461 33.7501 49.2411 33.7501 49.5786C33.7501 50.0848 35.3363 51.0636 35.7751 50.7936C36.0113 50.6586 35.8088 50.1861 35.2351 49.5111C32.5688 46.3386 31.6238 41.0061 33.0751 37.4286C34.6276 33.6148 36.4163 30.9148 38.5763 29.0586C39.0826 28.6198 39.6563 27.9448 39.8926 27.5736C40.2301 26.8986 40.4326 5.5686 40.0951 5.2311C39.8926 4.99485 33.7163 4.79235 32.7038 4.9611L31.8601 5.12985L31.7588 18.4948C31.7251 25.8861 31.6238 31.9273 31.5901 31.9948C31.4551 32.0961 28.4176 28.2148 27.1688 26.3248C26.6288 25.4811 25.9538 24.5698 25.7176 24.2998C25.2113 23.7261 22.6801 20.3511 21.9376 19.2373C20.5538 17.1786 16.8751 12.2173 16.2338 11.5423C15.8288 11.1373 15.5251 10.6986 15.5251 10.5973C15.5251 10.5298 14.6476 9.2811 13.6013 7.82985C12.5213 6.41235 11.6101 5.1636 11.5763 5.0961C11.5088 4.99485 9.95635 4.8936 8.1001 4.8261L4.7251 4.7586L4.7926 27.7761Z" fill="#964096"/>
<path d="M73.204 4.86019C73.1365 4.92769 72.3265 5.06269 71.3815 5.19769C68.6815 5.53519 67.5003 5.90644 64.8003 7.29019C61.8978 8.80894 61.9653 8.57269 63.1128 12.7914C63.619 14.7827 63.8215 16.1327 63.6865 17.2464C63.5178 18.5627 63.5853 18.8327 63.9903 18.6639C64.2265 18.5627 64.4628 18.3602 64.4628 18.1914C64.4628 17.8877 68.5128 14.5127 68.8165 14.5802C68.9178 14.6139 69.8628 14.3439 70.8753 14.0064C72.4278 13.5002 74.0478 13.3652 80.3253 13.2977C84.5103 13.2302 88.189 13.1627 88.5265 13.1627C89.269 13.1627 89.269 12.3864 88.459 10.2939C88.0878 9.38269 87.514 7.86394 87.1765 6.98644C86.7715 5.90644 86.299 5.23144 85.7928 5.02894C85.0503 4.72519 73.5078 4.59019 73.204 4.86019Z" fill="#964096"/>
<path d="M105.772 4.99462C100.777 5.66962 97.8412 7.01962 95.1412 9.78712C92.34 12.6896 91.395 15.2546 91.3612 19.9459C91.3612 23.1859 91.4625 23.7596 92.3062 25.5146C93.3187 27.6409 95.7487 30.2059 97.5712 31.1171C100.676 32.6021 104.726 33.2434 113.231 33.5471C119.07 33.7496 120.42 34.0534 121.837 35.4709C123.694 37.3609 123.019 40.4996 120.487 41.6134C119.306 42.1196 116.842 42.1871 96.4575 42.2209C70.8075 42.2546 70.3012 42.2209 66.9262 39.8921C65.9475 39.2509 65.1375 38.5759 65.1375 38.4409C65.1375 38.3059 64.935 37.9684 64.6987 37.7321C63.9225 36.9559 62.91 34.6609 62.2687 32.3321C61.6612 30.0709 61.695 26.5271 62.3362 22.9834C62.6062 21.4646 62.0325 21.8359 61.1212 23.7596C60.7162 24.5696 60.1425 25.5484 59.805 25.9534C59.5012 26.3584 58.7925 27.2359 58.2187 27.9446C57.1387 29.3284 53.865 32.1634 48.3637 36.4496C42.4237 41.1071 41.175 42.6596 40.905 45.7309C40.7362 47.8909 41.31 50.4559 41.8837 50.1184C42.0525 49.9834 42.1875 49.3084 42.1875 48.5996C42.1875 46.8446 43.0312 45.0896 44.7862 43.1996L46.2375 41.6809V46.3046V50.9621H50.2875H54.3375L54.405 43.4359L54.5062 35.9434L55.1137 37.7321C55.485 38.7109 56.16 40.2296 56.6325 41.1071C57.915 43.4696 62.235 47.5871 64.6987 48.8696C68.8162 50.9959 69.5587 51.0296 94.905 50.9959C119.205 50.9284 120.42 50.8609 123.694 49.2746C125.651 48.3296 128.925 45.6634 128.925 45.0221C128.925 44.7859 129.06 44.5496 129.229 44.5496C129.397 44.5496 129.87 43.7396 130.309 42.7609C131.017 41.2084 131.119 40.4996 131.119 36.9559C131.085 32.1296 130.545 30.6109 127.777 27.8434C124.942 24.9746 122.985 24.4009 115.425 24.1309C103.68 23.7259 102.364 23.4559 100.845 20.9921C100.102 19.7434 99.8662 16.9759 100.507 16.5709C100.676 16.4696 100.98 16.0309 101.216 15.6259C101.419 15.1871 102.094 14.5796 102.701 14.2759C103.68 13.7359 105.232 13.6346 117.112 13.4996L130.444 13.3309L130.342 9.28087C130.275 7.05337 130.174 5.19712 130.14 5.16337C130.072 5.06212 106.447 4.89337 105.772 4.99462Z" fill="#964096"/>
<path d="M71.5163 17.6191C70.9425 18.2266 70.8075 18.2603 70.9763 17.7878C71.3475 16.7753 70.5038 17.1466 69.1538 18.5978C67.8375 20.0153 65.6775 24.1328 65.9813 24.6391C66.0825 24.8078 66.0488 25.0103 65.88 25.1116C65.6438 25.2466 65.5763 30.5453 65.8125 30.5453C65.8463 30.5453 65.9138 30.8491 65.9475 31.2203C66.15 32.9078 66.5213 33.4141 67.5338 33.4141C68.0738 33.4141 68.5125 33.2453 68.5125 32.9753C68.5125 32.6716 68.58 32.6716 68.7825 32.9753C68.9513 33.2791 70.47 33.3803 73.8788 33.3803C78.3675 33.3803 78.6713 33.3128 78.1988 32.8066C77.49 31.9966 77.2875 29.4316 77.9625 29.8703C78.165 29.9716 78.3 29.7353 78.2663 29.2966C78.2663 28.8578 78.165 28.7228 78.0638 28.9591C77.9288 29.2966 77.5575 29.0941 76.7475 28.3178C76.1063 27.7103 75.6 27.3728 75.6 27.6091C75.6 27.8453 75.465 28.0141 75.2625 28.0141C75.0938 28.0141 75.0263 27.7778 75.1275 27.5078C75.33 27.0016 75.1275 26.8666 73.5075 26.5291C72.9 26.3941 72.495 26.0228 72.36 25.5166C72.2588 25.0441 71.9888 24.7403 71.7525 24.8416C71.4488 24.9428 71.2463 24.5378 71.1113 23.5253C70.875 21.7703 71.0775 20.8928 72.1238 19.0028C73.305 16.8428 73.0013 16.1003 71.5163 17.6191ZM69.12 22.2766C68.6475 23.0191 68.31 22.9178 68.6138 22.1078C68.7488 21.8378 68.985 21.6016 69.1875 21.6016C69.39 21.6016 69.39 21.8378 69.12 22.2766Z" fill="#15C1EC"/>
<path d="M81.3378 17.0791C81.3378 17.1803 81.6415 17.6528 82.0128 18.1253C83.059 19.4753 82.7553 20.2516 81.1353 20.2516C80.8653 20.2516 80.0215 20.8591 79.279 21.6016C78.2328 22.6478 77.929 23.1541 78.0303 23.8628C78.0978 24.6391 78.2665 24.7741 78.9753 24.7066C79.5828 24.6391 79.684 24.7066 79.3465 24.9091C78.9753 25.1791 79.0428 25.2803 79.6165 25.4828C80.764 25.8203 80.4265 26.1916 78.9753 26.1916C78.0978 26.1916 77.6253 26.0228 77.6253 25.7528C77.6253 25.2466 77.0853 25.1791 76.7815 25.6516C76.6803 25.8203 76.8828 26.2591 77.2203 26.5966C77.5915 26.9678 77.9628 27.4741 78.0303 27.7103C78.1653 28.0816 78.334 28.1153 79.009 27.7778C80.089 27.2041 82.6878 27.4403 83.0928 28.1491C83.2615 28.4528 83.599 28.6891 83.869 28.6891C84.139 28.6891 84.5778 29.0603 84.8815 29.4653C85.4553 30.3428 87.0753 31.2541 87.0753 30.7141C87.0753 30.5116 87.244 30.3766 87.4465 30.3766C87.649 30.3766 87.7503 30.5791 87.649 30.8153C87.5478 31.0853 87.6153 31.4903 87.7503 31.7266C87.919 31.9966 87.8853 32.4691 87.7165 32.8066C87.4465 33.3128 87.514 33.4141 88.054 33.4141C88.9315 33.4141 89.1003 33.1103 89.3365 31.0516C89.4715 29.7691 89.4378 29.3641 89.134 29.4316C88.8978 29.4991 88.5265 29.2291 88.324 28.8578C88.0878 28.4866 87.784 28.0816 87.649 27.9803C87.4803 27.8791 87.4803 27.2378 87.5815 26.5966C87.7503 25.6178 87.6828 25.3478 87.1765 25.1791C86.6028 24.9428 86.6028 24.9091 87.1765 24.6053C87.784 24.2341 87.9865 22.4453 87.4128 22.1078C87.244 22.0066 87.0753 21.5678 87.0753 21.1291C87.0753 20.1503 86.164 18.9353 85.8265 19.4416C85.624 19.7453 85.4215 19.6778 85.0503 19.3066C84.6115 18.8341 84.6453 18.8003 85.1515 19.0028C85.8603 19.2728 85.894 18.9353 85.219 17.9903C84.7803 17.3491 84.4765 17.2816 83.3628 17.4166C82.4853 17.5516 82.0128 17.4841 82.0128 17.2478C82.0128 17.0453 81.8778 16.8766 81.6753 16.8766C81.5065 16.8766 81.3378 16.9778 81.3378 17.0791ZM86.8728 22.1078C86.974 22.3778 86.974 22.6141 86.8728 22.6141C86.7715 22.6141 86.4678 22.3778 86.1978 22.1078C85.759 21.6691 85.759 21.6016 86.164 21.6016C86.434 21.6016 86.7378 21.8378 86.8728 22.1078Z" fill="#15C1EC"/>
<path d="M75.9375 23.6254C75.6675 23.7941 75.33 23.8279 75.195 23.7604C75.06 23.6591 74.925 23.6929 74.8912 23.8616C74.8912 23.9966 74.8237 24.4691 74.7225 24.8741C74.6212 25.4141 74.7562 25.6504 75.1275 25.6504C75.465 25.6504 75.6 25.4479 75.465 25.1441C75.3637 24.8741 75.3975 24.6716 75.5325 24.6716C76.3425 24.8066 76.95 24.5704 76.95 24.1654C76.95 23.4904 76.5112 23.2541 75.9375 23.6254Z" fill="#15C1EC"/>
<path d="M66.8252 33.9534C66.8252 34.2234 67.9727 35.9109 68.5802 36.5859C68.9177 36.9572 69.1877 37.3622 69.1877 37.4972C69.1877 37.6322 69.6939 38.0372 70.3014 38.4084C71.5164 39.1509 73.7439 39.3534 73.3389 38.7122C73.2377 38.4759 73.4402 38.5772 73.8114 38.9147C74.1827 39.2184 74.5877 39.3872 74.7227 39.2522C74.8577 39.1172 75.5664 39.0497 76.2752 39.1172C77.5577 39.1847 77.6252 39.1509 77.6589 38.2397C77.7264 37.3284 77.7264 37.3284 77.8614 38.1384C77.9627 38.6109 78.1989 39.0834 78.4352 39.2184C78.7052 39.4209 78.7052 39.4884 78.4014 39.4884C78.1989 39.4884 77.9289 39.7584 77.8614 40.0622C77.7264 40.6359 77.6927 40.6359 77.6589 40.0622C77.6252 39.6234 77.3214 39.4884 76.1064 39.4884C74.4527 39.4884 73.9127 40.2984 75.3639 40.5684C76.2752 40.7372 79.5827 40.6697 79.7852 40.4672C79.8527 40.3997 79.9877 39.1172 80.0889 37.6322C80.2239 35.9447 80.1564 35.1347 79.9877 35.4384C79.7177 35.8434 79.6502 35.8434 79.6502 35.3372C79.6502 34.9997 79.4477 34.5272 79.2114 34.2909C78.7052 33.7509 75.6002 33.6159 75.6002 34.1222C75.6002 34.2909 75.4314 34.3584 75.2627 34.2572C74.8577 34.0209 66.8252 33.7172 66.8252 33.9534Z" fill="#15C1EC"/>
<path d="M86.7376 34.1218C86.7376 34.2906 86.3663 35.0331 85.8938 35.7081C85.4213 36.3831 85.0501 36.7206 85.0501 36.4843C85.0501 36.2143 84.2063 36.8556 83.1601 37.9356C81.7088 39.4206 81.3713 39.9606 81.7088 40.1631C82.3838 40.6018 86.6363 37.7668 86.2313 37.1593C86.1638 36.9906 86.4676 36.6868 86.9063 36.4506C87.3788 36.2143 87.7501 35.7418 87.7501 35.4043C87.7501 35.0668 87.9188 34.6956 88.0876 34.5943C88.6951 34.2231 88.4251 33.7506 87.5813 33.7506C87.1088 33.7506 86.7376 33.9193 86.7376 34.1218ZM83.4976 38.9818C83.3626 39.2518 83.0251 39.4881 82.7213 39.4881C82.2488 39.4543 82.2826 39.3868 82.8226 38.9818C83.6663 38.3406 83.7338 38.3406 83.4976 38.9818Z" fill="#15C1EC"/>
<path d="M72.4275 39.9945C73.2375 40.602 73.4738 40.6358 73.4738 39.9945C73.4738 39.6908 73.1363 39.4883 72.5963 39.4883C71.7863 39.4883 71.7863 39.522 72.4275 39.9945Z" fill="#15C1EC"/>
</svg>
